<svg width="15" height="15" viewBox="0 0 15 15" fill="none" xmlns="http://www.w3.org/2000/svg">
<path d="M7.5 0.0625C3.39277 0.0625 0.0625 3.39277 0.0625 7.5C0.0625 11.6072 3.39277 14.9375 7.5 14.9375C11.6072 14.9375 14.9375 11.6072 14.9375 7.5C14.9375 3.39277 11.6072 0.0625 7.5 0.0625ZM10.7124 5.07119L7.21611 9.91885C7.16725 9.98705 7.10283 10.0426 7.02819 10.081C6.95356 10.1193 6.87087 10.1393 6.78696 10.1393C6.70306 10.1393 6.62036 10.1193 6.54573 10.081C6.4711 10.0426 6.40668 9.98705 6.35781 9.91885L4.2876 7.0501C4.22451 6.96211 4.2876 6.83926 4.39551 6.83926H5.17412C5.34346 6.83926 5.50449 6.92061 5.6041 7.06006L6.78613 8.70029L9.3959 5.08115C9.49551 4.94336 9.65488 4.86035 9.82588 4.86035H10.6045C10.7124 4.86035 10.7755 4.9832 10.7124 5.07119V5.07119Z" fill="#6C63FF"/>
</svg>
