<svg width="51" height="51" viewBox="0 0 51 51" fill="none" xmlns="http://www.w3.org/2000/svg">
<path d="M25.1667 0.166668C38.9917 0.166668 50.1667 11.3417 50.1667 25.1667C50.1667 38.9917 38.9917 50.1667 25.1667 50.1667C11.3417 50.1667 0.166687 38.9917 0.166687 25.1667C0.166687 11.3417 11.3417 0.166668 25.1667 0.166668ZM37.6667 12.6667H31.4167L28.9167 10.1667H21.4167L18.9167 12.6667H12.6667V17.6667H37.6667V12.6667ZM17.6667 40.1667H32.6667C33.3297 40.1667 33.9656 39.9033 34.4345 39.4344C34.9033 38.9656 35.1667 38.3297 35.1667 37.6667V20.1667H15.1667V37.6667C15.1667 38.3297 15.4301 38.9656 15.8989 39.4344C16.3678 39.9033 17.0036 40.1667 17.6667 40.1667Z" fill="#6C63FF"/>
</svg>
