<svg width="48" height="48" viewBox="0 0 48 48" fill="none" xmlns="http://www.w3.org/2000/svg">
<path d="M24 0C10.7452 0 0 10.7452 0 24C0 37.2548 10.7452 48 24 48C37.2548 48 48 37.2548 48 24C48 10.7452 37.2548 0 24 0ZM18.2754 8.83592H34.0547V15.7178L35.042 14.7334L39.9375 19.626L28.377 31.1894L21.1289 33.5449L23.4814 26.294L31.4033 18.3721V11.4726H20.209V16.2217H15.2168V36.5274H31.4033V32.1504L34.0547 29.4961V39.1641H12.5625V14.3525L18.2754 8.83592ZM24.706 27.5156L23.5283 31.1426L27.1524 29.9649L24.706 27.5156Z" fill="#6C63FF"/>
</svg>
